<svg width="360" height="360" viewBox="0 0 360 360" fill="none" xmlns="http://www.w3.org/2000/svg">
<g clip-path="url(#clip0_245_1127)">
<rect width="360" height="360" rx="1" fill="#0E0E0E"/>
<path d="M0 0H177.5V175L0 352.5V0Z" fill="#242426"/>
<path d="M360 0H177.5V175L360 352V0Z" fill="#1B1B1C"/>
<path d="M219.979 256.8L218.779 186H140.179C139.779 216 139.579 238.4 139.579 253.2L160.279 255.9C160.279 264.1 157.979 272.8 153.379 282H80.4789L77.7789 265.5C88.9789 260.9 97.3789 258 102.979 256.8C102.979 256.2 102.079 203.3 100.279 98.1L75.3789 90.3L77.7789 72H155.479C158.679 77.4 160.579 85.3 161.179 95.7C150.979 97.3 144.279 98.3 141.079 98.7C140.679 124.7 140.479 144.2 140.479 157.2H218.179L217.279 98.1L192.379 90.3L194.779 72H272.479C275.679 77.4 277.579 85.3 278.179 95.7C267.979 97.3 261.279 98.3 258.079 98.7L256.579 253.2L277.279 255.9C277.279 264.1 274.979 272.8 270.379 282H197.479L194.779 265.5C205.979 260.9 214.379 258 219.979 256.8Z" fill="#C7A357"/>
</g>
<defs>
<clipPath id="clip0_245_1127">
<rect width="360" height="360" rx="1" fill="white"/>
</clipPath>
</defs>
</svg>
